<svg width="128" height="128" viewBox="0 0 128 128" fill="none" xmlns="http://www.w3.org/2000/svg">
<g clip-path="url(#clip0_121_124)">
<path d="M31.8 23.4H96.312V39.528H72.504L56.888 113H39.992L55.608 39.528H31.8V23.4Z" fill="#D9D7D0"/>
<path d="M75.6992 104.152L83.0831 107.473L82.25 111.314L62.6685 102.523L64.2584 95.1934C64.445 94.3334 64.7493 93.591 65.1713 92.9663C65.5976 92.322 66.108 91.8086 66.7027 91.4259C67.2973 91.0433 67.9544 90.797 68.6741 90.6871C69.398 90.5576 70.1509 90.5776 70.9327 90.7472C72.0272 90.9847 72.9838 91.3866 73.8023 91.953C74.6208 92.5194 75.2784 93.2146 75.775 94.0386C76.2716 94.8626 76.5919 95.7916 76.736 96.8256C76.8801 97.8597 76.8249 98.9631 76.5705 100.136L75.6992 104.152ZM72.1769 102.559L72.9528 98.9826C73.169 97.9858 73.056 97.0915 72.6138 96.2998C72.1716 95.5081 71.4814 95.0104 70.5432 94.8069C69.82 94.6501 69.2219 94.7659 68.7488 95.1544C68.2603 95.5192 67.9356 96.0729 67.7745 96.8156L67.0304 100.246L72.1769 102.559ZM74.0093 88.7346C71.248 87.5011 69.3457 86.0345 68.3023 84.3347C67.2632 82.6154 67.0128 80.5145 67.5513 78.0323C67.776 76.9964 68.1414 76.1138 68.6475 75.3845C69.1341 74.6509 69.7299 74.0741 70.435 73.6541C71.1205 73.2298 71.8839 72.9656 72.725 72.8615C73.5705 72.7379 74.4427 72.7737 75.3418 72.9687C75.6741 73.0408 76.0021 73.1324 76.3259 73.2436C76.6539 73.3352 76.9756 73.4561 77.2909 73.6064L81.6547 75.566C84.416 76.7994 86.3162 78.2758 87.3553 79.9952C88.3987 81.695 88.6511 83.786 88.1127 86.2683C87.8879 87.3042 87.5323 88.1889 87.0458 88.9224C86.5396 89.6517 85.9438 90.2285 85.2583 90.6528C84.5532 91.0729 83.7877 91.3469 82.9619 91.4747C82.1207 91.5787 81.2408 91.5311 80.3222 91.3319C79.9899 91.2598 79.6597 91.1779 79.3317 91.0863C79.0079 90.9751 78.6884 90.8444 78.373 90.6942L74.0093 88.7346ZM84.6708 85.1533C84.815 84.4888 84.8249 83.877 84.7006 83.3179C84.5567 82.7546 84.3198 82.2428 83.9899 81.7824C83.6643 81.3024 83.2435 80.8837 82.7275 80.5262C82.2158 80.1491 81.6523 79.8222 81.037 79.5455L76.2296 77.3669C75.9296 77.2404 75.6742 77.1441 75.4634 77.0779C75.2374 76.9879 75.0169 76.9196 74.8019 76.873C73.805 76.6567 72.9758 76.7531 72.314 77.1621C71.637 77.5474 71.1967 78.2091 70.9932 79.1473C70.849 79.8118 70.8489 80.4257 70.9927 80.989C71.117 81.5481 71.342 82.0676 71.6677 82.5475C71.9976 83.0079 72.4184 83.4266 72.9301 83.8037C73.446 84.1612 74.0116 84.4783 74.6269 84.755L79.4344 86.9337C79.9366 87.1654 80.4126 87.3301 80.8621 87.4276C81.8589 87.6438 82.6959 87.5593 83.3729 87.1741C84.0347 86.7651 84.4673 86.0915 84.6708 85.1533ZM77.9034 70.7829C75.1421 69.5495 73.2398 68.0829 72.1964 66.3831C71.1573 64.6637 70.9069 62.5629 71.4454 60.0806C71.6701 59.0447 72.0355 58.1621 72.5416 57.4328C73.0282 56.6993 73.624 56.1225 74.3291 55.7024C75.0146 55.2781 75.778 55.0139 76.6191 54.9099C77.4646 54.7863 78.3368 54.822 79.2359 55.0171C79.5682 55.0891 79.8962 55.1808 80.22 55.2919C80.548 55.3835 80.8697 55.5045 81.185 55.6547L85.5488 57.6144C88.3101 58.8478 90.2103 60.3242 91.2494 62.0435C92.2928 63.7433 92.5452 65.8344 92.0068 68.3167C91.7821 69.3526 91.4264 70.2373 90.9399 70.9708C90.4338 71.7001 89.8379 72.2769 89.1524 72.7012C88.4473 73.1213 87.6818 73.3952 86.856 73.5231C86.0148 73.6271 85.1349 73.5795 84.2163 73.3802C83.884 73.3081 83.5538 73.2263 83.2258 73.1347C82.902 73.0235 82.5825 72.8928 82.2671 72.7425L77.9034 70.7829ZM88.5649 67.2017C88.7091 66.5371 88.719 65.9253 88.5947 65.3663C88.4508 64.803 88.2139 64.2911 87.884 63.8307C87.5584 63.3508 87.1376 62.932 86.6216 62.5745C86.1099 62.1975 85.5464 61.8706 84.9311 61.5939L80.1237 59.4152C79.8237 59.2888 79.5683 59.1924 79.3576 59.1262C79.1315 59.0363 78.911 58.968 78.696 58.9213C77.6991 58.7051 76.8699 58.8015 76.2081 59.2105C75.5311 59.5957 75.0908 60.2574 74.8873 61.1956C74.7431 61.8602 74.743 62.4741 74.8868 63.0374C75.0111 63.5964 75.2361 64.1159 75.5618 64.5959C75.8917 65.0563 76.3125 65.475 76.8242 65.8521C77.3401 66.2096 77.9057 66.5267 78.521 66.8034L83.3285 68.9821C83.8307 69.2138 84.3067 69.3784 84.7562 69.4759C85.753 69.6922 86.59 69.6077 87.267 69.2225C87.9288 68.8134 88.3614 68.1398 88.5649 67.2017ZM93.6759 56.9428L74.4335 48.2869L75.273 44.4169L91.3257 51.6442L93.2591 42.7315L96.9532 43.5328L94.0277 57.0192L93.6759 56.9428Z" fill="#D9D7D0"/>
</g>
<defs>
<clipPath id="clip0_121_124">
<rect width="128" height="128" fill="white"/>
</clipPath>
</defs>
</svg>
